<svg id="Layer_1" data-name="Layer 1" xmlns="http://www.w3.org/2000/svg" viewBox="0 0 22.84 22.84"><defs><style>.cls-1{fill:#010101;}.cls-2{fill:#fff;}</style></defs><path class="cls-1" d="M17.53,14.78l-2.3,2.3,8.63,8.64a1.63,1.63,0,0,0,2.31-2.31Z" transform="translate(-3.81 -3.36)"/><path class="cls-1" d="M6.59,3.83A1.63,1.63,0,0,0,4.28,6.14l8.64,8.64,2.31-2.31Z" transform="translate(-3.81 -3.36)"/><path class="cls-1" d="M26.17,6.14a1.63,1.63,0,0,0,0-2.31,1.65,1.65,0,0,0-2.31,0l-8.63,8.64,2.3,2.31Z" transform="translate(-3.81 -3.36)"/><path class="cls-1" d="M4.28,23.41a1.65,1.65,0,0,0,0,2.31,1.65,1.65,0,0,0,2.31,0l8.64-8.64-2.31-2.3Z" transform="translate(-3.81 -3.36)"/><rect class="cls-2" x="13.59" y="13.14" width="3.26" height="3.26" transform="translate(-9.79 11.74) rotate(-45)"/></svg>