<svg width="24" height="24" viewBox="0 0 24 24" fill="none" xmlns="http://www.w3.org/2000/svg">
<path d="M8.88439 14.712C8.9532 14.8008 9.04527 14.8734 9.15268 14.9236C9.26008 14.9738 9.3796 15 9.50094 15C9.62227 15 9.74179 14.9738 9.8492 14.9236C9.9566 14.8734 10.0487 14.8008 10.1175 14.712L16.868 6.04593C16.9462 5.94597 16.992 5.8289 17.0005 5.70742C17.009 5.58595 16.9799 5.46472 16.9164 5.3569C16.8528 5.24909 16.7572 5.15882 16.64 5.0959C16.5228 5.03298 16.3884 4.99981 16.2515 5H2.75041C2.61378 5.0005 2.47989 5.0341 2.36314 5.09717C2.24639 5.16024 2.15119 5.25041 2.08778 5.35797C2.02438 5.46553 1.99516 5.58642 2.00328 5.70764C2.0114 5.82886 2.05654 5.94581 2.13386 6.04593L8.88439 14.712Z" fill="white"/>
</svg>
