<svg id="Layer_1" data-name="Layer 1" xmlns="http://www.w3.org/2000/svg" viewBox="0 0 25.76 18"><defs><style>.cls-1{fill:#fff;}.cls-2,.cls-3{fill:none;}.cls-3{stroke:#fff;stroke-miterlimit:10;}.cls-4{fill:#010101;}</style></defs><rect class="cls-1" width="25.76" height="18" rx="1.2"/><path class="cls-2" d="M15,14.05" transform="translate(-2.4 -5.05)"/><path class="cls-3" d="M15,14.05" transform="translate(-2.4 -5.05)"/><path class="cls-1" d="M18,12a2,2,0,0,0-.42,0l-.25,0-.17,0-.16.05-.23.07-.13.07-.23.12-.14.11-.17.14c-.06.07-.11.14-.17.2a.39.39,0,0,1-.08.1,2.59,2.59,0,0,0-.19.33h0a2.08,2.08,0,0,0-.18.8l-.05.43a2.94,2.94,0,0,1-.16.6.14.14,0,0,0,0,.06c-.06.13-.12.27-.19.4l-.12.17c-.06.08-.11.17-.17.24a2.83,2.83,0,0,1-.24.25l-.12.12a3,3,0,0,1-.34.25l-.08.05a3.54,3.54,0,0,1-.39.19l-.09,0a2.12,2.12,0,0,1-.36.1L13,17l-.27,0a2.48,2.48,0,0,1-.27,0h-.06a2.25,2.25,0,0,1-.58-.07l-.18-.05a3.12,3.12,0,0,1-.43-.15h0a4.67,4.67,0,0,0,8.53-2.64v0h0A2.14,2.14,0,0,0,18,12Z" transform="translate(-2.4 -5.05)"/><path class="cls-2" d="M19.69,14.07A2.14,2.14,0,0,0,18,12a2,2,0,0,0-.42,0l-.25,0-.17,0-.16.05-.23.07-.13.07-.23.12-.14.11-.17.14c-.06.07-.11.14-.17.2a.39.39,0,0,1-.08.1,2.59,2.59,0,0,0-.19.33h0a2.08,2.08,0,0,0-.18.8l-.05.43a2.94,2.94,0,0,1-.16.6.14.14,0,0,0,0,.06c-.06.13-.12.27-.19.4l-.12.17c-.06.08-.11.17-.17.24a2.83,2.83,0,0,1-.24.25l-.12.12a3,3,0,0,1-.34.25l-.08.05a3.54,3.54,0,0,1-.39.19l-.09,0a2.12,2.12,0,0,1-.36.1L13,17l-.27,0a2.48,2.48,0,0,1-.27,0h-.06a2.25,2.25,0,0,1-.58-.07l-.18-.05a3.12,3.12,0,0,1-.43-.15h0a4.67,4.67,0,0,0,8.53-2.64v0Z" transform="translate(-2.4 -5.05)"/><path class="cls-4" d="M20.59,14.05V14h0A5.59,5.59,0,0,0,9.43,14v0h0v.05h0a5.59,5.59,0,0,0,11.17,0s0,0,0,0ZM15,18.77a4.67,4.67,0,0,1-3.85-2h0a3.12,3.12,0,0,0,.43.15l.18.05a2.25,2.25,0,0,0,.58.07h.06a2.48,2.48,0,0,0,.27,0L13,17l.16,0a2.12,2.12,0,0,0,.36-.1l.09,0a3.54,3.54,0,0,0,.39-.19l.08-.05a3,3,0,0,0,.34-.25l.12-.12a2.83,2.83,0,0,0,.24-.25c.06-.07.11-.16.17-.24l.12-.17c.07-.13.13-.27.19-.4a.14.14,0,0,1,0-.06,2.94,2.94,0,0,0,.16-.6l.05-.43a2.08,2.08,0,0,1,.18-.8h0a2.59,2.59,0,0,1,.19-.33.39.39,0,0,0,.08-.1c.06-.06.11-.13.17-.2l.17-.14.14-.11.23-.12.13-.07.23-.07.16-.05.17,0,.25,0A2,2,0,0,1,18,12a2.14,2.14,0,0,1,1.69,2.05h0v0A4.69,4.69,0,0,1,15,18.77Z" transform="translate(-2.4 -5.05)"/><path class="cls-4" d="M25.21,10.67a.5.5,0,0,1-.37-.17L22.45,7.82a.5.5,0,0,1,0-.7.5.5,0,0,1,.71,0l2.38,2.67a.5.5,0,0,1,0,.71A.51.51,0,0,1,25.21,10.67Z" transform="translate(-2.4 -5.05)"/><path class="cls-4" d="M22.83,21.21a.5.5,0,0,1-.38-.83l2.39-2.68a.5.5,0,1,1,.74.66L23.2,21A.51.51,0,0,1,22.83,21.21Z" transform="translate(-2.4 -5.05)"/><path class="cls-4" d="M5.21,10.67a.51.51,0,0,1-.33-.13.5.5,0,0,1,0-.71L7.22,7.16a.5.5,0,0,1,.71,0,.5.5,0,0,1,0,.7L5.58,10.5A.5.5,0,0,1,5.21,10.67Z" transform="translate(-2.4 -5.05)"/><path class="cls-4" d="M7.59,21.21A.51.51,0,0,1,7.22,21L4.84,18.36a.5.5,0,0,1,.74-.66L8,20.38a.5.5,0,0,1-.38.83Z" transform="translate(-2.4 -5.05)"/></svg>