<svg id="Layer_1" data-name="Layer 1" xmlns="http://www.w3.org/2000/svg" viewBox="0 0 20 24"><defs><style>.cls-1{fill:#010101;}.cls-2{fill:#fff;}</style></defs><path class="cls-1" d="M18.84,13.66a6,6,0,1,0-7,0,7.73,7.73,0,0,1,7.05,0Z" transform="translate(-5.31 -2.81)"/><path class="cls-1" d="M25.24,22.88c-.93-4.29-3.32-7.71-6.4-9.22a6,6,0,0,1-7,0c-3.08,1.51-5.48,4.93-6.4,9.22a3.2,3.2,0,0,0,3,3.93H22.2A3.21,3.21,0,0,0,25.24,22.88Z" transform="translate(-5.31 -2.81)"/><path class="cls-2" d="M18.84,13.66a7.73,7.73,0,0,0-7,0,6,6,0,0,0,7.05,0Z" transform="translate(-5.31 -2.81)"/></svg>