<svg id="Layer_1" data-name="Layer 1" xmlns="http://www.w3.org/2000/svg" viewBox="0 0 25.76 18"><defs><style>.cls-1{fill:#fff;}.cls-2,.cls-3{fill:none;}.cls-3{stroke:#fff;stroke-miterlimit:10;}.cls-4{fill:#010101;}</style></defs><rect class="cls-1" width="25.76" height="18" rx="1.2"/><path class="cls-2" d="M17,12.36" transform="translate(-2.27 -5.55)"/><path class="cls-3" d="M17,12.36" transform="translate(-2.27 -5.55)"/><path class="cls-4" d="M4.44,3.78h7.91a0,0,0,0,1,0,0V10.3a0,0,0,0,1,0,0H4.44a.64.64,0,0,1-.64-.64V4.42A.64.64,0,0,1,4.44,3.78Z"/><path class="cls-4" d="M24,12.08H12.35a.45.45,0,0,1,0-.9H24a.45.45,0,1,1,0,.9Z" transform="translate(-2.27 -5.55)"/><path class="cls-4" d="M24,10.23h-12a.45.45,0,0,1,0-.9H24a.45.45,0,0,1,0,.9Z" transform="translate(-2.27 -5.55)"/><path class="cls-4" d="M24,13.94H12.35a.45.45,0,0,1,0-.9H24a.45.45,0,1,1,0,.9Z" transform="translate(-2.27 -5.55)"/><path class="cls-4" d="M24,15.85H11.9a.45.45,0,0,1,0-.9H24a.45.45,0,1,1,0,.9Z" transform="translate(-2.27 -5.55)"/><path class="cls-4" d="M24,17.81H6.35a.45.45,0,1,1,0-.89H24a.45.45,0,1,1,0,.89Z" transform="translate(-2.27 -5.55)"/><path class="cls-4" d="M24,19.77H6.35a.45.45,0,0,1,0-.9H24a.45.45,0,0,1,0,.9Z" transform="translate(-2.27 -5.55)"/></svg>