<svg id="Layer_1" data-name="Layer 1" xmlns="http://www.w3.org/2000/svg" viewBox="0 0 22 24"><defs><style>.cls-1{fill:#fff;}.cls-2{fill:#010101;}</style></defs><path class="cls-1" d="M25,2.93H9.21A1.06,1.06,0,0,0,8.12,4V14.07h5.4V11.7A.91.91,0,0,1,15,11l4,3.13a.83.83,0,0,1,0,1.32l-4,3.13A.91.91,0,0,1,13.52,18V15.79H8.12V25.9a1.06,1.06,0,0,0,1.09,1H25a1.06,1.06,0,0,0,1.09-1V4A1.06,1.06,0,0,0,25,2.93Z" transform="translate(-4.12 -2.93)"/><rect class="cls-2" x="4" y="11.14" width="5.4" height="1.71"/><path class="cls-2" d="M19,14.17,15,11a.9.9,0,0,0-1.47.66v2.37h.89a.86.86,0,1,1,0,1.72h-.89V18a.9.9,0,0,0,1.47.66l4-3.13A.82.82,0,0,0,19,14.17Z" transform="translate(-4.12 -2.93)"/><path class="cls-2" d="M15.83,15.06a1.14,1.14,0,0,0-1.15-1.13H13.53v2.26h1.15A1.15,1.15,0,0,0,15.83,15.06Z" transform="translate(-4.12 -2.93)"/><path class="cls-1" d="M6.12,13.93h-1a1,1,0,0,0,0,2h3v-2Z" transform="translate(-4.12 -2.93)"/></svg>