<?xml version="1.0" encoding="utf-8"?>
<!-- Generator: Adobe Illustrator 24.1.1, SVG Export Plug-In . SVG Version: 6.00 Build 0)  -->
<svg version="1.1" id="Layer_1" xmlns="http://www.w3.org/2000/svg" xmlns:xlink="http://www.w3.org/1999/xlink" x="0px" y="0px"
	 viewBox="0 0 20 20" style="enable-background:new 0 0 20 20;" xml:space="preserve">
<style type="text/css">
	.st0{fill:#434383;}
	.st1{fill:#FFFFFF;}
</style>
<circle class="st0" cx="10" cy="10" r="10"/>
<path class="st1" d="M16,11H4c-0.6,0-1-0.4-1-1c0-0.6,0.4-1,1-1h12c0.6,0,1,0.4,1,1C17,10.6,16.6,11,16,11z"/>
<path class="st1" d="M10,17c-0.6,0-1-0.4-1-1V4c0-0.6,0.4-1,1-1c0.6,0,1,0.4,1,1v12C11,16.6,10.6,17,10,17z"/>
</svg>
