<?xml version="1.0" encoding="utf-8"?>
<!-- Generator: Adobe Illustrator 24.1.1, SVG Export Plug-In . SVG Version: 6.00 Build 0)  -->
<svg version="1.1" id="Layer_1" xmlns="http://www.w3.org/2000/svg" xmlns:xlink="http://www.w3.org/1999/xlink" x="0px" y="0px"
	 viewBox="0 0 50 50" style="enable-background:new 0 0 50 50;" xml:space="preserve">
<style type="text/css">
	.st0{fill:#424383;}
	.st1{fill:#FFFFFF;}
</style>
<g>
	<g>
		<g>
			<path class="st0" d="M9.94,36.31c0,1.72,1.39,3.11,3.11,3.11h24.89c1.72,0,3.11-1.39,3.11-3.11V18.75H9.94V36.31z"/>
		</g>
		<g>
			<path class="st0" d="M37.94,8.3H13.05c-1.72,0-3.11,1.39-3.11,3.11v5.78h31.12v-5.78C41.05,9.69,39.66,8.3,37.94,8.3z"/>
		</g>
	</g>
	<g>
		<path class="st0" d="M15.53,9.23h-1.15c-0.17,0-0.3-0.13-0.3-0.3V6.71c0-0.17,0.13-0.3,0.3-0.3h1.15c0.17,0,0.3,0.13,0.3,0.3v2.22
			C15.83,9.09,15.69,9.23,15.53,9.23z"/>
	</g>
	<g>
		<path class="st0" d="M35.66,9.23h-1.15c-0.17,0-0.3-0.13-0.3-0.3V6.71c0-0.17,0.13-0.3,0.3-0.3h1.15c0.17,0,0.3,0.13,0.3,0.3v2.22
			C35.96,9.09,35.82,9.23,35.66,9.23z"/>
	</g>
	<g>
		<g>
			<circle class="st1" cx="22.4" cy="32.18" r="3.1"/>
		</g>
		<g>
			<circle class="st1" cx="29.85" cy="24.74" r="3.1"/>
		</g>
		<g>
			<path class="st1" d="M29.51,29.6l-2.67,4.62c-0.15,0.26,0.04,0.59,0.34,0.59h5.33c0.3,0,0.49-0.33,0.34-0.59l-2.67-4.62
				C30.04,29.34,29.66,29.34,29.51,29.6z"/>
		</g>
		<g>
			<path class="st1" d="M22.4,23.26l-2.01-1.07c-0.35-0.19-0.78,0.07-0.78,0.47v4.7h5.59v-4.7c0-0.4-0.43-0.66-0.78-0.47L22.4,23.26
				z"/>
		</g>
	</g>
</g>
</svg>
