<?xml version="1.0" encoding="utf-8"?>
<!-- Generator: Adobe Illustrator 24.1.1, SVG Export Plug-In . SVG Version: 6.00 Build 0)  -->
<svg version="1.1" id="Layer_1" xmlns="http://www.w3.org/2000/svg" xmlns:xlink="http://www.w3.org/1999/xlink" x="0px" y="0px"
	 viewBox="0 0 50 50" style="enable-background:new 0 0 50 50;" xml:space="preserve">
<style type="text/css">
	.st0{fill:#FFFFFF;}
	.st1{fill:#424383;}
</style>
<g>
	<g>
		<path class="st0" d="M19.19,13.52h8.63c4.3,0,7.82,3.52,7.82,7.82V27c0,4.3-3.52,7.82-7.82,7.82h-8.63c-4.3,0-7.82-3.52-7.82-7.82
			v-5.66C11.37,17.04,14.89,13.52,19.19,13.52z"/>
	</g>
	<g>
		<g>
			<path class="st1" d="M21.41,24.47h2.83l-1.87,5.72L21.41,24.47z"/>
		</g>
		<g>
			<path class="st1" d="M28.14,24.47h2.83l-0.96,5.71L28.14,24.47z"/>
		</g>
		<g>
			<path class="st1" d="M26.19,6.27c-4.83,0-9.46,1.92-12.87,5.33c-3.41,3.41-5.33,8.04-5.33,12.87s1.92,9.46,5.33,12.87
				c3.41,3.41,8.04,5.33,12.87,5.33s9.46-1.92,12.87-5.33c3.41-3.41,5.33-8.04,5.33-12.87s-1.92-9.46-5.33-12.87
				C35.65,8.18,31.02,6.27,26.19,6.27L26.19,6.27z M34.81,26.39c0.53,0,0.96,0.43,0.96,0.96s-0.43,0.96-0.96,0.96h-2.54l-0.39,2.34
				h0c0.01,0.04,0.01,0.08,0,0.12c-0.16,0.52-0.54,0.95-1.04,1.18c-0.5,0.23-1.07,0.23-1.57,0c-0.5-0.23-0.88-0.65-1.04-1.18
				l-2.03-6.08l-2,6.11c-0.16,0.52-0.54,0.95-1.04,1.18c-0.5,0.23-1.07,0.23-1.57,0c-0.5-0.23-0.88-0.65-1.04-1.18
				c-0.01-0.04-0.01-0.08,0-0.11L20.1,28.3h-2.54c-0.53,0-0.96-0.43-0.96-0.96s0.43-0.96,0.96-0.96h2.22l-0.31-1.92h-1.92
				c-0.53,0-0.96-0.43-0.96-0.96c0-0.53,0.43-0.96,0.96-0.96h1.58l-0.62-3.68c-0.08-0.53,0.28-1.03,0.8-1.11
				c0.53-0.08,1.03,0.28,1.11,0.8l0.65,3.99h3.78l0.41-1.26h0c0.13-0.39,0.5-0.66,0.91-0.66s0.78,0.27,0.91,0.66l0.41,1.26h3.78
				l0.65-3.99c0.08-0.53,0.58-0.89,1.11-0.8c0.53,0.08,0.89,0.58,0.8,1.11l-0.62,3.68h1.58c0.53,0,0.96,0.43,0.96,0.96
				c0,0.53-0.43,0.96-0.96,0.96H32.9l-0.32,1.92L34.81,26.39z"/>
		</g>
	</g>
</g>
</svg>
